<?xml version="1.0" encoding="utf-8"?>
<!-- Generator: Adobe Illustrator 26.2.1, SVG Export Plug-In . SVG Version: 6.00 Build 0)  -->
<svg version="1.1" id="圖層_1" xmlns="http://www.w3.org/2000/svg" xmlns:xlink="http://www.w3.org/1999/xlink" x="0px" y="0px"
	 viewBox="0 0 78 60" style="enable-background:new 0 0 78 60;" xml:space="preserve">
<style type="text/css">
	.st0{clip-path:url(#SVGID_00000122700064462680838640000012319075130026933925_);fill:#8FC31F;}
	.st1{clip-path:url(#SVGID_00000168826008259842716550000016341693654874097030_);fill:#8FC31F;}
	.st2{clip-path:url(#SVGID_00000059276378895754589210000001639187435969474469_);fill:#8FC31F;}
	.st3{clip-path:url(#SVGID_00000146475864090442658330000012718678978797112456_);fill:#8FC31F;}
	.st4{fill:none;stroke:#E60012;stroke-width:2;stroke-miterlimit:10;}
	.st5{fill:#E60012;}
</style>
<g>
	<g>
		<g id="_x3C_鏡像重複_x3E__00000100355185819020034830000016535250795495062414_">
			<g>
				<g>
					<g>
						<defs>
							<rect id="SVGID_1_" x="12.79" y="3.74" width="32.08" height="52.2"/>
						</defs>
						<clipPath id="SVGID_00000107552446045937371230000014297692148673912458_">
							<use xlink:href="#SVGID_1_"  style="overflow:visible;"/>
						</clipPath>
						<path style="clip-path:url(#SVGID_00000107552446045937371230000014297692148673912458_);fill:#8FC31F;" d="M21.26,14.02
							c0-8.64,4.2-7.66,4.2-1.22c0,4.22,2.05,6.44,4.75,7.54c2.87,1.17,7.31-0.12,9.22-2.67c0.96-1.26,1.37-2.67,1.37-4.75
							s-0.55-3.77-2.43-5.46c-2.46-2.19-0.89-6.13,2.97-1.69c1.5,1.69,2.15,2.67,2.84,4.37c0.75,1.88,0.82,3.29,0.55,5.11
							c-0.31,2.08-0.82,3.53-2.05,4.99c-1.74,2.08-2.84,2.67-5.3,5.58c-1.37,1.62-2.97,4.37-3.93,8.87
							c-0.61,2.86-0.27,8.02-0.96,11.07c-0.68,3.03-1.5,4.87-2.84,7.18c-1.26,2.15-4.1,6.51-3.11-2.19
							c0.55-4.87,0.82-7.18,0.41-11.31c-0.44-4.37-1.95-6.56-6.25-6.08c-3.25,0.36-2.15,6.3-2.97,10.09
							c-1.64,7.3-3.86,3.15-4.2,1.96c-0.68-2.31-0.99-5.73-0.55-8.4c1.37-8.02,2.97-7.59,7.99-8.99c4.34-1.22,5.23-2.98,2.43-6.8
							C21.4,18.41,21.26,14.02,21.26,14.02z"/>
					</g>
				</g>
				<g>
					<g>
						<defs>
							<rect id="SVGID_00000080171415119794883120000005992194276865821592_" x="12.79" y="3.74" width="32.08" height="52.2"/>
						</defs>
						<clipPath id="SVGID_00000080183834737760480970000004957582516037778367_">
							<use xlink:href="#SVGID_00000080171415119794883120000005992194276865821592_"  style="overflow:visible;"/>
						</clipPath>
						
							<ellipse style="clip-path:url(#SVGID_00000080183834737760480970000004957582516037778367_);fill:#8FC31F;" cx="33.18" cy="13.83" rx="4.85" ry="4.37"/>
					</g>
				</g>
			</g>
		</g>
		<g id="_x3C_鏡像重複_x3E__00000058561067332168640330000006394044724294711719_">
			<g>
				<g>
					<g>
						<defs>
							<rect id="SVGID_00000022542125197795837740000008037242212159923347_" x="45.1" y="3.74" width="32.08" height="52.2"/>
						</defs>
						<clipPath id="SVGID_00000101061576683581500030000004284649587097461378_">
							<use xlink:href="#SVGID_00000022542125197795837740000008037242212159923347_"  style="overflow:visible;"/>
						</clipPath>
						<path style="clip-path:url(#SVGID_00000101061576683581500030000004284649587097461378_);fill:#8FC31F;" d="M68.67,14.02
							c0-8.64-4.2-7.66-4.2-1.22c0,4.22-2.05,6.44-4.75,7.54c-2.87,1.17-7.31-0.12-9.22-2.67c-0.96-1.26-1.37-2.67-1.37-4.75
							s0.55-3.77,2.43-5.46c2.46-2.19,0.89-6.13-2.97-1.69c-1.5,1.69-2.15,2.67-2.84,4.37c-0.75,1.88-0.82,3.29-0.55,5.11
							c0.31,2.08,0.82,3.53,2.05,4.99c1.74,2.08,2.84,2.67,5.3,5.58c1.37,1.62,2.97,4.37,3.93,8.87c0.61,2.86,0.27,8.02,0.96,11.07
							c0.68,3.03,1.5,4.87,2.84,7.18c1.26,2.15,4.1,6.51,3.11-2.19c-0.55-4.87-0.82-7.18-0.41-11.31c0.44-4.37,1.95-6.56,6.25-6.08
							c3.25,0.36,2.15,6.3,2.97,10.09c1.64,7.3,3.86,3.15,4.2,1.96c0.68-2.31,0.99-5.73,0.55-8.4c-1.37-8.02-2.97-7.59-7.99-8.99
							c-4.34-1.22-5.23-2.98-2.43-6.8C68.54,18.41,68.67,14.02,68.67,14.02z"/>
					</g>
				</g>
				<g>
					<g>
						<defs>
							<rect id="SVGID_00000103976727145997437480000016305099142471396503_" x="45.1" y="3.74" width="32.08" height="52.2"/>
						</defs>
						<clipPath id="SVGID_00000126282172184926873070000011653558258642444723_">
							<use xlink:href="#SVGID_00000103976727145997437480000016305099142471396503_"  style="overflow:visible;"/>
						</clipPath>
						
							<ellipse style="clip-path:url(#SVGID_00000126282172184926873070000011653558258642444723_);fill:#8FC31F;" cx="56.79" cy="13.83" rx="4.85" ry="4.37"/>
					</g>
				</g>
			</g>
		</g>
	</g>
	<path class="st4" d="M1.62,22.73"/>
	<path class="st5" d="M22.86,27.41c0,0,0.82-0.26,1.43-1.03c0,0,4.68,2.58,7.58,3.84c5.5,2.36,9.84,3.22,13.22,3.15
		c5.6-0.12,9.67-1.88,13.19-3.32c2.7-1.1,5.53-2.67,7.38-3.72c0,0,0.07,0.26,1.61,1.12c0,0-4.99,2.55-8.78,4.2
		c-3.07,1.34-7.75,3.27-13.22,3.27c-4.78,0-9.87-1-14.04-2.93C28.88,30.91,22.86,27.41,22.86,27.41z"/>
</g>
</svg>
