<?xml version="1.0" encoding="utf-8"?>
<!-- Generator: Adobe Illustrator 26.2.1, SVG Export Plug-In . SVG Version: 6.00 Build 0)  -->
<svg version="1.1" id="圖層_1" xmlns="http://www.w3.org/2000/svg" xmlns:xlink="http://www.w3.org/1999/xlink" x="0px" y="0px"
	 viewBox="0 0 215 66" style="enable-background:new 0 0 215 66;" xml:space="preserve">
<style type="text/css">
	.st0{clip-path:url(#SVGID_00000142863113577680588060000006703556984929814425_);fill:#8FC31F;}
	.st1{clip-path:url(#SVGID_00000073712857261987554660000017882960708695583620_);fill:#8FC31F;}
	.st2{clip-path:url(#SVGID_00000183955828997616282090000011407288882897421235_);fill:#8FC31F;}
	.st3{clip-path:url(#SVGID_00000180355132987956194620000018204393762589806999_);fill:#8FC31F;}
	.st4{fill:none;stroke:#E60012;stroke-width:2;stroke-miterlimit:10;}
	.st5{fill:#E60012;}
	.st6{fill:#E4142C;}
</style>
<g>
	<g>
		<g id="_x3C_鏡像重複_x3E__00000100355185819020034830000016535250795495062414_">
			<g>
				<g>
					<g>
						<defs>
							<rect id="SVGID_1_" x="9.82" y="5.2" width="32.08" height="52.2"/>
						</defs>
						<clipPath id="SVGID_00000130625274858440121550000014818577748101173167_">
							<use xlink:href="#SVGID_1_"  style="overflow:visible;"/>
						</clipPath>
						<path style="clip-path:url(#SVGID_00000130625274858440121550000014818577748101173167_);fill:#8FC31F;" d="M18.29,15.48
							c0-8.64,4.2-7.66,4.2-1.22c0,4.22,2.05,6.44,4.75,7.54c2.87,1.17,7.31-0.12,9.22-2.67c0.96-1.26,1.37-2.67,1.37-4.75
							s-0.55-3.77-2.43-5.46c-2.46-2.19-0.89-6.13,2.97-1.69c1.5,1.69,2.15,2.67,2.84,4.37c0.75,1.88,0.82,3.29,0.55,5.11
							c-0.31,2.08-0.82,3.53-2.05,4.99c-1.74,2.08-2.84,2.67-5.3,5.58c-1.37,1.62-2.97,4.37-3.93,8.87
							c-0.61,2.86-0.27,8.02-0.96,11.07c-0.68,3.03-1.5,4.87-2.84,7.18c-1.26,2.15-4.1,6.51-3.11-2.19
							c0.55-4.87,0.82-7.18,0.41-11.31c-0.44-4.37-1.95-6.56-6.25-6.08c-3.25,0.36-2.15,6.3-2.97,10.09
							c-1.64,7.3-3.86,3.15-4.2,1.96c-0.68-2.31-0.99-5.73-0.55-8.4c1.37-8.02,2.97-7.59,7.99-8.99c4.34-1.22,5.23-2.98,2.43-6.8
							C18.43,19.87,18.29,15.48,18.29,15.48z"/>
					</g>
				</g>
				<g>
					<g>
						<defs>
							<rect id="SVGID_00000147941078032261401610000011731717132695962775_" x="9.82" y="5.2" width="32.08" height="52.2"/>
						</defs>
						<clipPath id="SVGID_00000102511307310008834960000016534791964457433015_">
							<use xlink:href="#SVGID_00000147941078032261401610000011731717132695962775_"  style="overflow:visible;"/>
						</clipPath>
						
							<ellipse style="clip-path:url(#SVGID_00000102511307310008834960000016534791964457433015_);fill:#8FC31F;" cx="30.21" cy="15.29" rx="4.85" ry="4.37"/>
					</g>
				</g>
			</g>
		</g>
		<g id="_x3C_鏡像重複_x3E__00000058561067332168640330000006394044724294711719_">
			<g>
				<g>
					<g>
						<defs>
							<rect id="SVGID_00000052806219528102011860000002465762735058558376_" x="42.13" y="5.2" width="32.08" height="52.2"/>
						</defs>
						<clipPath id="SVGID_00000034781978927832632040000002377839979406934450_">
							<use xlink:href="#SVGID_00000052806219528102011860000002465762735058558376_"  style="overflow:visible;"/>
						</clipPath>
						<path style="clip-path:url(#SVGID_00000034781978927832632040000002377839979406934450_);fill:#8FC31F;" d="M65.7,15.48
							c0-8.64-4.2-7.66-4.2-1.22c0,4.22-2.05,6.44-4.75,7.54c-2.87,1.17-7.31-0.12-9.22-2.67c-0.96-1.26-1.37-2.67-1.37-4.75
							s0.55-3.77,2.43-5.46c2.46-2.19,0.89-6.13-2.97-1.69c-1.5,1.69-2.15,2.67-2.84,4.37c-0.75,1.88-0.82,3.29-0.55,5.11
							c0.31,2.08,0.82,3.53,2.05,4.99c1.74,2.08,2.84,2.67,5.3,5.58c1.37,1.62,2.97,4.37,3.93,8.87c0.61,2.86,0.27,8.02,0.96,11.07
							c0.68,3.03,1.5,4.87,2.84,7.18c1.26,2.15,4.1,6.51,3.11-2.19c-0.55-4.87-0.82-7.18-0.41-11.31c0.44-4.37,1.95-6.56,6.25-6.08
							c3.25,0.36,2.15,6.3,2.97,10.09c1.64,7.3,3.86,3.15,4.2,1.96c0.68-2.31,0.99-5.73,0.55-8.4c-1.37-8.02-2.97-7.59-7.99-8.99
							c-4.34-1.22-5.23-2.98-2.43-6.8C65.57,19.87,65.7,15.48,65.7,15.48z"/>
					</g>
				</g>
				<g>
					<g>
						<defs>
							<rect id="SVGID_00000154427619172869420490000016596728182731710138_" x="42.13" y="5.2" width="32.08" height="52.2"/>
						</defs>
						<clipPath id="SVGID_00000054979651632330176910000017150962386716177309_">
							<use xlink:href="#SVGID_00000154427619172869420490000016596728182731710138_"  style="overflow:visible;"/>
						</clipPath>
						
							<ellipse style="clip-path:url(#SVGID_00000054979651632330176910000017150962386716177309_);fill:#8FC31F;" cx="53.82" cy="15.29" rx="4.85" ry="4.37"/>
					</g>
				</g>
			</g>
		</g>
	</g>
	<path class="st4" d="M-1.35,24.19"/>
	<path class="st5" d="M19.89,28.87c0,0,0.82-0.26,1.43-1.03c0,0,4.68,2.58,7.58,3.84c5.5,2.36,9.84,3.22,13.22,3.15
		c5.6-0.12,9.67-1.88,13.19-3.32c2.7-1.1,5.53-2.67,7.38-3.72c0,0,0.07,0.26,1.61,1.12c0,0-4.99,2.55-8.78,4.2
		c-3.07,1.34-7.75,3.27-13.22,3.27c-4.78,0-9.87-1-14.04-2.93C25.91,32.37,19.89,28.87,19.89,28.87z"/>
</g>
<g>
	<path class="st6" d="M98.57,14.13c0.09,1.52-0.43,4.18-1.56,7.99c-1.2,4.08-2.56,7.56-4.08,10.44c-1.84,3.42-3.51,5.13-5.03,5.13
		c-0.77,0-1.51-0.34-2.23-1.02c-0.71-0.68-1.07-1.38-1.07-2.11c0-0.34,0.1-0.65,0.31-0.92c-0.36-9.77-0.5-16.41-0.41-19.92
		c-0.48-0.77-0.71-1.35-0.71-1.73c0-0.54,0.31-1.02,0.92-1.43c0.54-0.39,1.11-0.58,1.7-0.58c0.54,0,1,0.16,1.36,0.48
		c2.95-1.16,4.91-1.73,5.88-1.73c0.52,0,1.03,0.12,1.53,0.37c0.75,0.36,1.46,1,2.14,1.9C98.08,12.04,98.5,13.08,98.57,14.13z
		 M93.95,13.11c-0.23-0.27-0.52-0.41-0.88-0.41c-0.7,0-2.09,0.82-4.15,2.45c-0.14,1.7-0.2,3.58-0.2,5.64c0,2.95,0.14,5.98,0.41,9.11
		c1.2-2.92,2.31-6,3.33-9.21c1.09-3.47,1.63-5.78,1.63-6.94C94.08,13.43,94.04,13.22,93.95,13.11z"/>
	<path class="st6" d="M111.97,18.75c1.52,1.54,2.28,4.14,2.28,7.79c0,2.83-0.53,5.25-1.6,7.24c-1.2,2.24-2.86,3.37-4.96,3.37
		c-2.09,0-3.7-1.01-4.83-3.03c-1-1.77-1.5-4.01-1.5-6.73c0-2.4,0.39-4.56,1.16-6.46c0.82-2.04,1.86-3.24,3.13-3.6
		c0.66-0.18,1.34-0.27,2.04-0.27C109.43,17.05,110.86,17.62,111.97,18.75z M108.09,20.38c-0.75-0.07-1.39,0.63-1.94,2.11
		c-0.47,1.34-0.71,2.74-0.71,4.22c0,2.13,0.09,3.64,0.27,4.52c0.32,1.59,0.97,2.46,1.97,2.62c0.63,0.09,1.22-0.78,1.77-2.62
		c0.52-1.77,0.78-3.66,0.78-5.68C110.23,22.24,109.52,20.52,108.09,20.38z"/>
	<path class="st6" d="M131.41,19.7c0.04,0.34-0.02,0.7-0.2,1.09c-0.23,0.52-0.36,0.91-0.41,1.16c0,4.71-0.19,7.99-0.58,9.83
		c-0.84,3.85-2.62,5.78-5.34,5.78c-3.97,0-5.95-3.61-5.95-10.85c0-1.95,0.15-4.01,0.44-6.19c-0.16-0.52-0.24-0.99-0.24-1.39
		c0-0.66,0.21-1.21,0.65-1.67c0.36-0.39,0.9-0.58,1.6-0.58c0.57,0,1.1,0.12,1.6,0.36s0.79,0.52,0.88,0.83
		c0.05,0.16,0.07,0.32,0.07,0.48c0,0.29-0.12,0.77-0.37,1.41c-0.25,0.65-0.35,1.17-0.31,1.58c-0.23,1.27-0.34,2.87-0.34,4.79
		c0,1.95,0.12,3.57,0.37,4.86c0.32,1.5,0.76,2.24,1.33,2.24c0.95,0,1.58-1.61,1.87-4.83c0.16-1.61,0.24-4.17,0.24-7.68
		c0-0.23-0.04-0.56-0.1-0.99c-0.07-0.43-0.1-0.75-0.1-0.95c0-0.54,0.21-0.92,0.61-1.12c0.23-0.11,0.54-0.17,0.95-0.17
		c0.75,0,1.44,0.16,2.07,0.48C130.9,18.56,131.32,19.07,131.41,19.7z"/>
	<path class="st6" d="M148.68,27.11c0,2.61-0.33,4.73-0.99,6.36c-0.86,2.13-2.23,3.2-4.11,3.2c-1.41,0-2.63-0.74-3.67-2.21
		c0.02,0.18,0.09,0.44,0.2,0.78s0.17,0.59,0.17,0.75c0,0.2-0.06,0.36-0.17,0.48c-0.29,0.36-0.88,0.54-1.77,0.54
		c-1.41,0-2.24-0.31-2.52-0.92c-0.09-0.2-0.14-0.4-0.14-0.58c0-0.23,0.09-0.52,0.27-0.87c0.18-0.35,0.27-0.65,0.27-0.9V14.36
		c0-0.29-0.07-0.65-0.22-1.07s-0.22-0.75-0.22-1s0.04-0.51,0.14-0.78c0.27-0.82,0.97-1.22,2.11-1.22c1.38,0,2.31,0.51,2.79,1.53
		c0.11,0.23,0.17,0.45,0.17,0.68c0,0.29-0.15,0.73-0.44,1.29c-0.29,0.57-0.44,1.03-0.44,1.39v4.39c0.97-1.5,1.93-2.24,2.86-2.24
		c1.65,0,3.05,1.08,4.18,3.23C148.18,22.52,148.68,24.71,148.68,27.11z M144.2,27.11c0-1.43-0.12-2.71-0.37-3.84
		c-0.32-1.38-0.74-2.07-1.26-2.07c-0.45,0-0.91,0.75-1.36,2.24c-0.45,1.41-0.68,2.63-0.68,3.67c0,1.38,0.2,2.75,0.61,4.11
		c0.43,1.47,0.91,2.21,1.43,2.21c1.11,0,1.67-1.28,1.67-3.84c0-0.29,0-0.71,0-1.26C144.21,27.77,144.2,27.36,144.2,27.11z"/>
	<path class="st6" d="M157.86,36.46c-0.45,0.86-1.29,1.29-2.52,1.29c-1.13,0-1.93-0.39-2.38-1.16c-0.14-0.23-0.2-0.48-0.2-0.75
		c0-0.23,0.08-0.6,0.24-1.12s0.24-0.95,0.24-1.29l-0.14-21.96c0-1.2,0-1.81,0-1.84c0.07-0.29,0.39-0.54,0.95-0.73
		c0.57-0.19,1.17-0.29,1.8-0.29c0.93,0,1.52,0.17,1.77,0.51s0.37,0.69,0.37,1.05c0,0.25-0.09,0.66-0.27,1.24s-0.27,1.05-0.27,1.41
		v20.4c0,0.34,0.1,0.79,0.29,1.34c0.19,0.56,0.29,0.96,0.29,1.21S157.98,36.26,157.86,36.46z"/>
	<path class="st6" d="M174.59,32.72c-0.18,0.86-0.79,1.78-1.84,2.75c-0.16,0.25-0.78,0.58-1.87,0.99c-1.25,0.48-2.32,0.68-3.23,0.61
		c-1.7-0.11-3.04-1.09-4.01-2.92c-0.88-1.7-1.33-3.79-1.33-6.26c0-2.67,0.5-5.02,1.5-7.04c1.11-2.22,2.6-3.47,4.45-3.74
		c0.36-0.05,0.71-0.07,1.05-0.07c2.7,0,4.18,1.65,4.45,4.96c0.14,1.52-0.46,3.17-1.8,4.96c-1.45,1.97-3.31,3.35-5.58,4.15
		c0.25,0.91,0.44,1.5,0.58,1.77c0.32,0.57,0.75,0.85,1.29,0.85c0.52,0,1.08-0.2,1.67-0.61c0.5-0.34,0.84-0.67,1.02-0.99
		c0.09-0.05,0.18-0.3,0.27-0.77c0.09-0.46,0.33-0.8,0.71-1c0.14-0.07,0.29-0.1,0.48-0.1c0.54,0,1.07,0.27,1.58,0.8
		C174.51,31.61,174.7,32.16,174.59,32.72z M169.25,20.75c-0.91,0-1.64,0.65-2.21,1.94c-0.75,1.72-1.05,3.42-0.92,5.1
		c1.06-0.34,2.05-1.13,2.96-2.38s1.36-2.36,1.36-3.33C170.44,21.2,170.05,20.75,169.25,20.75z"/>
	<path class="st6" d="M201.04,25c-0.09,1.81-0.07,4.42,0.07,7.82c0,0.23,0.08,0.54,0.24,0.95s0.24,0.7,0.24,0.88
		c0,0.45-0.38,0.84-1.16,1.16c-0.16,0.07-0.36,0.1-0.61,0.1c-0.75,0-1.54-0.2-2.38-0.61c-1-0.48-1.5-1.04-1.5-1.7
		c0-0.29,0.11-0.68,0.32-1.16s0.42-0.94,0.63-1.39V25.2l-4.56,0.95c0,1.11,0.01,2.67,0.03,4.69s0.03,3.04,0.03,3.06
		c0,0.27,0.07,0.69,0.22,1.26s0.22,0.97,0.22,1.22c0,0.45-0.15,0.82-0.46,1.1c-0.31,0.28-0.72,0.42-1.24,0.42
		c-0.54,0-1.1-0.15-1.67-0.44c-0.57-0.29-0.95-0.6-1.14-0.9c-0.19-0.31-0.29-0.53-0.29-0.66c0-0.04,0.09-0.28,0.27-0.71
		c0-0.97-0.01-2.56-0.03-4.76s-0.03-3.6-0.03-4.22c-0.02-0.07-0.29-0.56-0.82-1.46c-0.32-0.52-0.43-1.01-0.34-1.46
		c0.04-0.25,0.18-0.45,0.41-0.61c0.23-0.16,0.45-0.32,0.68-0.48c-0.07-5.39-0.05-9.04,0.07-10.95c-0.2-0.41-0.31-0.74-0.31-0.99
		c0-0.5,0.35-0.92,1.05-1.26c0.29-0.14,0.71-0.2,1.26-0.2c1.77,0,2.84,0.48,3.23,1.43c0.07,0.18,0.1,0.35,0.1,0.51
		c0,0.32-0.2,0.79-0.6,1.41c-0.4,0.62-0.59,1.14-0.59,1.55c-0.14,3.63-0.16,6.32-0.07,8.09c2.22-0.39,3.69-0.68,4.42-0.88
		c-0.2-2.77-0.18-6.01,0.07-9.72c-0.2-0.57-0.31-1.03-0.31-1.39c0-0.68,0.42-1.24,1.26-1.67c0.18-0.09,0.44-0.14,0.78-0.14
		c0.79,0,1.56,0.19,2.31,0.58c0.86,0.45,1.3,1.03,1.33,1.73c0.02,0.32-0.18,0.71-0.59,1.19c-0.42,0.48-0.63,0.9-0.63,1.26
		c-0.05,3.26-0.02,6.01,0.07,8.23c0.36,0.29,0.73,0.73,1.11,1.29c0.37,0.57,0.56,1.03,0.56,1.39c0,0.36-0.19,0.63-0.58,0.82
		C201.75,24.68,201.38,24.85,201.04,25z"/>
</g>
<g>
	<path d="M88.71,54.07l-1.38-5.47v5.93c0,0.33-0.07,0.57-0.22,0.74s-0.34,0.25-0.58,0.25c-0.23,0-0.43-0.08-0.57-0.24
		s-0.22-0.41-0.22-0.74v-6.8c0-0.38,0.1-0.63,0.29-0.76s0.46-0.2,0.79-0.2h0.54c0.32,0,0.56,0.03,0.71,0.09s0.25,0.16,0.33,0.32
		s0.15,0.4,0.24,0.74l1.25,4.71l1.25-4.71c0.09-0.34,0.17-0.59,0.24-0.74s0.18-0.26,0.33-0.32s0.38-0.09,0.71-0.09h0.54
		c0.33,0,0.6,0.07,0.79,0.2s0.29,0.38,0.29,0.76v6.8c0,0.33-0.07,0.57-0.22,0.74s-0.34,0.25-0.59,0.25c-0.23,0-0.42-0.08-0.57-0.25
		s-0.22-0.41-0.22-0.74v-5.93l-1.38,5.47c-0.09,0.36-0.16,0.62-0.22,0.78s-0.16,0.32-0.31,0.45s-0.36,0.21-0.63,0.21
		c-0.2,0-0.38-0.04-0.52-0.13s-0.25-0.2-0.33-0.34s-0.14-0.29-0.18-0.45S88.75,54.25,88.71,54.07z"/>
	<path d="M101.9,54.39l-0.41-1.08H98l-0.41,1.1c-0.16,0.43-0.3,0.72-0.41,0.87s-0.3,0.23-0.56,0.23c-0.22,0-0.41-0.08-0.58-0.24
		s-0.25-0.34-0.25-0.54c0-0.12,0.02-0.24,0.06-0.36s0.1-0.3,0.19-0.52l2.2-5.58c0.06-0.16,0.14-0.35,0.23-0.58s0.18-0.41,0.28-0.56
		s0.23-0.27,0.39-0.36s0.36-0.14,0.6-0.14s0.44,0.05,0.61,0.14s0.29,0.21,0.39,0.35s0.18,0.3,0.25,0.47s0.16,0.39,0.26,0.67
		l2.24,5.54c0.18,0.42,0.26,0.73,0.26,0.92c0,0.2-0.08,0.38-0.25,0.55s-0.37,0.25-0.6,0.25c-0.14,0-0.25-0.02-0.35-0.07
		s-0.18-0.12-0.25-0.2s-0.14-0.21-0.21-0.39S101.95,54.52,101.9,54.39z M98.45,52h2.57l-1.29-3.54L98.45,52z"/>
	<path d="M107.97,51.69h-0.61v2.76c0,0.36-0.08,0.63-0.24,0.8s-0.37,0.26-0.63,0.26c-0.28,0-0.49-0.09-0.64-0.27
		s-0.23-0.44-0.23-0.79v-6.61c0-0.38,0.08-0.65,0.25-0.81s0.44-0.25,0.81-0.25h2.83c0.39,0,0.72,0.02,1,0.05s0.53,0.1,0.75,0.2
		c0.27,0.11,0.51,0.28,0.71,0.49s0.36,0.46,0.47,0.74s0.16,0.58,0.16,0.89c0,0.64-0.18,1.15-0.54,1.54s-0.91,0.65-1.64,0.81
		c0.31,0.16,0.6,0.41,0.88,0.73s0.53,0.66,0.75,1.02s0.39,0.69,0.52,0.98s0.18,0.49,0.18,0.6c0,0.11-0.04,0.23-0.11,0.34
		s-0.17,0.2-0.3,0.26s-0.27,0.1-0.43,0.1c-0.2,0-0.36-0.05-0.49-0.14s-0.25-0.21-0.34-0.35s-0.23-0.35-0.39-0.62l-0.7-1.16
		c-0.25-0.43-0.47-0.75-0.67-0.97s-0.4-0.38-0.6-0.46S108.28,51.69,107.97,51.69z M108.97,48.08h-1.61v2.36h1.56
		c0.42,0,0.77-0.04,1.05-0.11s0.5-0.2,0.65-0.37s0.23-0.41,0.23-0.72c0-0.24-0.06-0.45-0.18-0.63s-0.29-0.32-0.5-0.41
		C109.96,48.12,109.56,48.08,108.97,48.08z"/>
	<path d="M120.44,48.21h-1.9v6.24c0,0.36-0.08,0.63-0.24,0.8s-0.37,0.26-0.62,0.26c-0.26,0-0.47-0.09-0.63-0.26s-0.24-0.44-0.24-0.8
		v-6.24h-1.9c-0.3,0-0.52-0.07-0.66-0.2s-0.22-0.3-0.22-0.52s0.08-0.4,0.23-0.53s0.37-0.19,0.65-0.19h5.53c0.3,0,0.52,0.07,0.67,0.2
		s0.22,0.31,0.22,0.52s-0.07,0.39-0.22,0.52S120.74,48.21,120.44,48.21z"/>
	<path d="M127.48,48.59c0-0.36,0.09-0.69,0.28-0.99s0.47-0.54,0.83-0.71s0.8-0.26,1.29-0.26c0.49,0,0.92,0.09,1.28,0.28
		s0.63,0.42,0.81,0.72s0.27,0.61,0.27,0.93c0,0.44-0.14,0.82-0.43,1.14s-0.71,0.65-1.28,0.99c0.2,0.23,0.38,0.45,0.54,0.65
		s0.33,0.39,0.49,0.57s0.3,0.33,0.43,0.45c0.06-0.11,0.15-0.31,0.27-0.62s0.24-0.52,0.35-0.65s0.26-0.2,0.45-0.2
		c0.18,0,0.35,0.07,0.49,0.2s0.21,0.29,0.21,0.48c0,0.17-0.06,0.42-0.18,0.73s-0.3,0.66-0.53,1.05c0.14,0.12,0.37,0.31,0.69,0.57
		s0.51,0.43,0.58,0.52s0.11,0.21,0.11,0.37c0,0.2-0.07,0.37-0.22,0.51s-0.31,0.21-0.49,0.21c-0.18,0-0.36-0.06-0.53-0.18
		s-0.54-0.4-1.1-0.86c-0.25,0.24-0.52,0.43-0.79,0.59s-0.56,0.27-0.87,0.34s-0.66,0.11-1.04,0.11c-0.49,0-0.93-0.07-1.32-0.21
		c-0.39-0.14-0.71-0.33-0.97-0.58s-0.45-0.51-0.57-0.81s-0.19-0.59-0.19-0.9c0-0.29,0.05-0.56,0.14-0.81s0.23-0.46,0.4-0.66
		s0.38-0.38,0.63-0.56s0.54-0.35,0.86-0.52c-0.29-0.37-0.51-0.69-0.67-0.98S127.48,48.9,127.48,48.59z M129.14,51.4
		c-0.4,0.23-0.7,0.46-0.89,0.69s-0.3,0.5-0.3,0.82c0,0.18,0.04,0.35,0.11,0.52c0.07,0.16,0.18,0.32,0.32,0.46s0.3,0.25,0.48,0.32
		s0.38,0.11,0.58,0.11s0.39-0.03,0.58-0.09s0.37-0.15,0.53-0.27s0.34-0.26,0.52-0.43c-0.35-0.32-0.66-0.64-0.94-0.95
		S129.53,51.87,129.14,51.4z M129.74,49.79c0.4-0.25,0.69-0.47,0.86-0.64s0.27-0.38,0.27-0.63c0-0.24-0.09-0.45-0.27-0.61
		s-0.4-0.25-0.67-0.25s-0.5,0.08-0.68,0.25s-0.27,0.37-0.27,0.59c0,0.12,0.03,0.24,0.1,0.38s0.15,0.27,0.25,0.4
		S129.57,49.59,129.74,49.79z"/>
	<path d="M147.2,52.65c0,0.27-0.07,0.57-0.2,0.89s-0.35,0.63-0.64,0.94s-0.66,0.56-1.11,0.75s-0.97,0.29-1.57,0.29
		c-0.45,0-0.87-0.04-1.24-0.13s-0.71-0.22-1.01-0.4s-0.58-0.42-0.83-0.72c-0.23-0.27-0.42-0.57-0.58-0.91s-0.28-0.69-0.36-1.07
		s-0.12-0.78-0.12-1.21c0-0.69,0.1-1.31,0.3-1.86s0.49-1.01,0.86-1.4s0.81-0.68,1.32-0.89s1.04-0.3,1.61-0.3
		c0.7,0,1.31,0.14,1.86,0.42s0.96,0.62,1.25,1.03s0.43,0.79,0.43,1.16c0,0.2-0.07,0.38-0.21,0.53S146.65,50,146.45,50
		c-0.22,0-0.39-0.05-0.5-0.16s-0.24-0.29-0.37-0.54c-0.23-0.43-0.49-0.74-0.8-0.96s-0.68-0.32-1.13-0.32
		c-0.71,0-1.28,0.27-1.71,0.81s-0.64,1.31-0.64,2.31c0,0.67,0.09,1.22,0.28,1.67s0.45,0.77,0.8,0.99s0.75,0.33,1.21,0.33
		c0.5,0,0.92-0.12,1.27-0.37s0.61-0.61,0.78-1.09c0.07-0.23,0.17-0.41,0.28-0.55s0.29-0.21,0.53-0.21c0.21,0,0.38,0.07,0.53,0.22
		S147.2,52.43,147.2,52.65z"/>
	<path d="M153.14,46.62c0.89,0,1.66,0.18,2.29,0.54s1.12,0.88,1.45,1.54s0.49,1.45,0.49,2.35c0,0.66-0.09,1.27-0.27,1.81
		s-0.45,1.01-0.81,1.41s-0.8,0.7-1.32,0.91s-1.12,0.32-1.8,0.32c-0.67,0-1.27-0.11-1.8-0.33s-0.97-0.52-1.33-0.92
		s-0.62-0.87-0.81-1.42s-0.27-1.15-0.27-1.8c0-0.66,0.09-1.27,0.28-1.82s0.46-1.02,0.82-1.41s0.8-0.68,1.31-0.89
		S152.49,46.62,153.14,46.62z M155.61,51.04c0-0.63-0.1-1.17-0.3-1.63s-0.49-0.81-0.87-1.05s-0.81-0.35-1.3-0.35
		c-0.35,0-0.67,0.07-0.96,0.2s-0.55,0.32-0.76,0.57s-0.38,0.57-0.5,0.96s-0.18,0.83-0.18,1.31c0,0.49,0.06,0.93,0.18,1.32
		s0.3,0.72,0.52,0.98s0.48,0.45,0.77,0.58s0.61,0.19,0.96,0.19c0.45,0,0.85-0.11,1.23-0.33s0.67-0.57,0.89-1.03
		S155.61,51.72,155.61,51.04z"/>
	<path d="M159.48,51.81v-4.13c0-0.35,0.08-0.62,0.24-0.79s0.37-0.26,0.62-0.26c0.27,0,0.48,0.09,0.64,0.26s0.24,0.44,0.24,0.79v4.22
		c0,0.48,0.05,0.88,0.16,1.2s0.3,0.57,0.57,0.75s0.66,0.27,1.15,0.27c0.68,0,1.16-0.18,1.44-0.54s0.42-0.91,0.42-1.64v-4.26
		c0-0.36,0.08-0.62,0.23-0.79s0.37-0.26,0.63-0.26s0.47,0.09,0.64,0.26s0.24,0.44,0.24,0.79v4.13c0,0.67-0.07,1.23-0.2,1.68
		s-0.38,0.84-0.74,1.18c-0.31,0.29-0.68,0.5-1.09,0.63s-0.9,0.2-1.45,0.2c-0.66,0-1.23-0.07-1.71-0.21s-0.87-0.36-1.17-0.66
		s-0.52-0.68-0.66-1.15S159.48,52.46,159.48,51.81z"/>
	<path d="M171.52,51.69h-0.61v2.76c0,0.36-0.08,0.63-0.24,0.8s-0.37,0.26-0.63,0.26c-0.28,0-0.49-0.09-0.64-0.27
		s-0.23-0.44-0.23-0.79v-6.61c0-0.38,0.08-0.65,0.25-0.81s0.44-0.25,0.81-0.25h2.83c0.39,0,0.72,0.02,1,0.05s0.53,0.1,0.75,0.2
		c0.27,0.11,0.51,0.28,0.71,0.49s0.36,0.46,0.47,0.74s0.16,0.58,0.16,0.89c0,0.64-0.18,1.15-0.54,1.54s-0.91,0.65-1.64,0.81
		c0.31,0.16,0.6,0.41,0.88,0.73s0.53,0.66,0.75,1.02s0.39,0.69,0.52,0.98s0.18,0.49,0.18,0.6c0,0.11-0.04,0.23-0.11,0.34
		s-0.17,0.2-0.3,0.26s-0.27,0.1-0.43,0.1c-0.2,0-0.36-0.05-0.49-0.14s-0.25-0.21-0.34-0.35s-0.23-0.35-0.39-0.62l-0.7-1.16
		c-0.25-0.43-0.47-0.75-0.67-0.97s-0.4-0.38-0.6-0.46S171.83,51.69,171.52,51.69z M172.52,48.08h-1.61v2.36h1.56
		c0.42,0,0.77-0.04,1.05-0.11s0.5-0.2,0.65-0.37s0.23-0.41,0.23-0.72c0-0.24-0.06-0.45-0.18-0.63s-0.29-0.32-0.5-0.41
		C173.52,48.12,173.12,48.08,172.52,48.08z"/>
	<path d="M184.94,52.78c0,0.52-0.13,0.99-0.4,1.4s-0.66,0.74-1.17,0.97s-1.13,0.35-1.83,0.35c-0.85,0-1.55-0.16-2.1-0.48
		c-0.39-0.23-0.71-0.54-0.95-0.92s-0.37-0.76-0.37-1.12c0-0.21,0.07-0.39,0.22-0.54s0.33-0.23,0.56-0.23c0.18,0,0.34,0.06,0.47,0.18
		s0.24,0.29,0.33,0.52c0.11,0.27,0.23,0.5,0.35,0.69s0.31,0.33,0.54,0.45s0.53,0.18,0.91,0.18c0.52,0,0.93-0.12,1.26-0.36
		s0.48-0.54,0.48-0.9c0-0.29-0.09-0.52-0.26-0.69s-0.4-0.31-0.67-0.41s-0.64-0.19-1.1-0.3c-0.62-0.14-1.13-0.31-1.55-0.51
		s-0.75-0.46-0.99-0.79s-0.37-0.75-0.37-1.25c0-0.47,0.13-0.89,0.39-1.26s0.63-0.65,1.12-0.85s1.06-0.3,1.72-0.3
		c0.53,0,0.98,0.07,1.37,0.2s0.7,0.3,0.96,0.52s0.44,0.44,0.56,0.68s0.18,0.47,0.18,0.7c0,0.21-0.07,0.39-0.22,0.56
		s-0.33,0.25-0.55,0.25c-0.2,0-0.35-0.05-0.45-0.15s-0.22-0.26-0.34-0.49c-0.16-0.32-0.34-0.58-0.56-0.76s-0.57-0.27-1.05-0.27
		c-0.45,0-0.81,0.1-1.09,0.3s-0.41,0.43-0.41,0.71c0,0.17,0.05,0.32,0.14,0.45s0.22,0.23,0.39,0.32s0.33,0.16,0.5,0.21
		s0.45,0.12,0.83,0.22c0.48,0.11,0.92,0.24,1.32,0.38s0.73,0.3,1,0.5s0.49,0.44,0.64,0.74S184.94,52.35,184.94,52.78z"/>
	<path d="M192.68,48.11h-3.92v2.11h3.61c0.27,0,0.46,0.06,0.59,0.18s0.2,0.28,0.2,0.47s-0.06,0.35-0.19,0.48s-0.33,0.18-0.6,0.18
		h-3.61v2.44h4.05c0.27,0,0.48,0.06,0.62,0.19s0.21,0.3,0.21,0.51c0,0.2-0.07,0.37-0.21,0.5s-0.34,0.19-0.62,0.19h-4.73
		c-0.38,0-0.65-0.08-0.82-0.25s-0.25-0.44-0.25-0.81v-6.46c0-0.25,0.04-0.45,0.11-0.61s0.19-0.27,0.35-0.35s0.36-0.11,0.61-0.11
		h4.59c0.28,0,0.48,0.06,0.62,0.18s0.2,0.28,0.2,0.48s-0.07,0.37-0.2,0.49S192.96,48.11,192.68,48.11z"/>
	<path d="M202.15,52.78c0,0.52-0.13,0.99-0.4,1.4s-0.66,0.74-1.17,0.97s-1.13,0.35-1.83,0.35c-0.85,0-1.55-0.16-2.1-0.48
		c-0.39-0.23-0.71-0.54-0.95-0.92s-0.37-0.76-0.37-1.12c0-0.21,0.07-0.39,0.22-0.54s0.33-0.23,0.56-0.23c0.18,0,0.34,0.06,0.47,0.18
		s0.24,0.29,0.33,0.52c0.11,0.27,0.23,0.5,0.35,0.69s0.31,0.33,0.54,0.45s0.53,0.18,0.91,0.18c0.52,0,0.93-0.12,1.26-0.36
		s0.48-0.54,0.48-0.9c0-0.29-0.09-0.52-0.26-0.69s-0.4-0.31-0.67-0.41s-0.64-0.19-1.1-0.3c-0.62-0.14-1.13-0.31-1.55-0.51
		s-0.75-0.46-0.99-0.79s-0.37-0.75-0.37-1.25c0-0.47,0.13-0.89,0.39-1.26s0.63-0.65,1.12-0.85s1.06-0.3,1.72-0.3
		c0.53,0,0.98,0.07,1.37,0.2s0.7,0.3,0.96,0.52s0.44,0.44,0.56,0.68s0.18,0.47,0.18,0.7c0,0.21-0.07,0.39-0.22,0.56
		s-0.33,0.25-0.55,0.25c-0.2,0-0.35-0.05-0.45-0.15s-0.22-0.26-0.34-0.49c-0.16-0.32-0.34-0.58-0.56-0.76s-0.57-0.27-1.05-0.27
		c-0.45,0-0.81,0.1-1.09,0.3s-0.41,0.43-0.41,0.71c0,0.17,0.05,0.32,0.14,0.45s0.22,0.23,0.39,0.32s0.33,0.16,0.5,0.21
		s0.45,0.12,0.83,0.22c0.48,0.11,0.92,0.24,1.32,0.38s0.73,0.3,1,0.5s0.49,0.44,0.64,0.74S202.15,52.35,202.15,52.78z"/>
</g>
</svg>
