<?xml version="1.0" encoding="utf-8"?>
<!-- Generator: Adobe Illustrator 26.2.1, SVG Export Plug-In . SVG Version: 6.00 Build 0)  -->
<svg version="1.1" id="圖層_1" xmlns="http://www.w3.org/2000/svg" xmlns:xlink="http://www.w3.org/1999/xlink" x="0px" y="0px"
	 viewBox="0 0 215 66" style="enable-background:new 0 0 215 66;" xml:space="preserve">
<style type="text/css">
	.st0{fill:#FFFFFF;}
	.st1{clip-path:url(#SVGID_00000150805376575398425860000002577519768678811549_);fill:#8FC31F;}
	.st2{clip-path:url(#SVGID_00000131334526742757358470000005825162771714176694_);fill:#8FC31F;}
	.st3{clip-path:url(#SVGID_00000097486246053761468060000002180106524001602973_);fill:#8FC31F;}
	.st4{clip-path:url(#SVGID_00000166658863282246405230000011181744211039307676_);fill:#8FC31F;}
	.st5{fill:none;stroke:#E60012;stroke-width:2;stroke-miterlimit:10;}
	.st6{fill:#E60012;}
</style>
<path class="st0" d="M95.24,61l-0.01-5.06l-2.51,4.19h-0.63l-2.51-4.12V61h-1.35v-7.63h1.17l3.03,5.06l2.98-5.06h1.17L96.58,61
	H95.24z M104.68,59.23h-3.82L100.11,61h-1.46l3.43-7.63h1.4l3.44,7.63h-1.48L104.68,59.23z M104.21,58.12l-1.44-3.34l-1.43,3.34
	H104.21z M113.98,61l-1.56-2.23c-0.07,0.01-0.16,0.01-0.29,0.01h-1.72V61h-1.42v-7.63h3.14c0.66,0,1.24,0.11,1.72,0.33
	c0.49,0.22,0.87,0.53,1.13,0.94c0.26,0.41,0.39,0.89,0.39,1.45c0,0.57-0.14,1.07-0.43,1.48c-0.28,0.41-0.68,0.72-1.2,0.93L115.5,61
	H113.98z M113.94,56.08c0-0.49-0.16-0.86-0.48-1.12c-0.32-0.26-0.79-0.39-1.41-0.39h-1.66v3.04h1.66c0.62,0,1.09-0.13,1.41-0.39
	C113.79,56.95,113.94,56.57,113.94,56.08z M119.49,54.57h-2.53v-1.2h6.47v1.2h-2.53V61h-1.42V54.57z M135.41,61.12l-0.96-0.93
	c-0.71,0.61-1.57,0.92-2.56,0.92c-0.53,0-1.01-0.09-1.43-0.26c-0.42-0.17-0.75-0.41-0.99-0.72c-0.24-0.31-0.36-0.66-0.36-1.06
	c0-0.47,0.14-0.89,0.41-1.24c0.28-0.36,0.73-0.72,1.35-1.07c-0.3-0.31-0.52-0.59-0.65-0.85c-0.13-0.27-0.2-0.54-0.2-0.83
	c0-0.54,0.2-0.97,0.6-1.3c0.41-0.33,0.94-0.5,1.61-0.5c0.62,0,1.11,0.15,1.48,0.46c0.37,0.3,0.56,0.7,0.56,1.22
	c0,0.39-0.12,0.74-0.37,1.05c-0.24,0.31-0.63,0.61-1.19,0.93l1.65,1.57c0.18-0.36,0.32-0.78,0.43-1.29l1.1,0.36
	c-0.15,0.68-0.37,1.26-0.69,1.74l0.96,0.92L135.41,61.12z M132.24,54.25c-0.3,0-0.53,0.08-0.71,0.23c-0.17,0.15-0.26,0.34-0.26,0.58
	c0,0.17,0.05,0.34,0.14,0.5c0.1,0.15,0.28,0.36,0.54,0.63c0.44-0.24,0.74-0.45,0.91-0.62c0.17-0.18,0.26-0.38,0.26-0.59
	c0-0.23-0.08-0.4-0.24-0.53C132.73,54.32,132.52,54.25,132.24,54.25z M131.99,60c0.63,0,1.18-0.19,1.66-0.58l-2.02-1.93
	c-0.44,0.24-0.74,0.47-0.93,0.7c-0.18,0.22-0.26,0.47-0.26,0.74c0,0.32,0.14,0.58,0.43,0.77C131.15,59.9,131.53,60,131.99,60z
	 M147.79,57.1h1.34v3.04c-0.39,0.31-0.85,0.55-1.37,0.72c-0.52,0.17-1.06,0.25-1.61,0.25c-0.78,0-1.48-0.17-2.1-0.5
	c-0.62-0.34-1.11-0.81-1.47-1.41s-0.53-1.27-0.53-2.02c0-0.75,0.18-1.42,0.53-2.02c0.36-0.6,0.85-1.06,1.47-1.4
	c0.63-0.34,1.34-0.51,2.13-0.51c0.64,0,1.22,0.11,1.74,0.32c0.52,0.21,0.96,0.52,1.32,0.93l-0.89,0.87
	c-0.58-0.58-1.28-0.87-2.1-0.87c-0.54,0-1.02,0.11-1.44,0.34c-0.41,0.23-0.74,0.54-0.98,0.95c-0.23,0.41-0.35,0.87-0.35,1.4
	c0,0.51,0.12,0.97,0.35,1.37c0.24,0.41,0.57,0.73,0.98,0.96c0.42,0.23,0.9,0.35,1.43,0.35c0.6,0,1.12-0.13,1.57-0.39V57.1z
	 M157.08,61l-1.56-2.23c-0.07,0.01-0.16,0.01-0.29,0.01h-1.72V61h-1.42v-7.63h3.14c0.66,0,1.24,0.11,1.72,0.33
	c0.49,0.22,0.87,0.53,1.13,0.94c0.26,0.41,0.39,0.89,0.39,1.45c0,0.57-0.14,1.07-0.43,1.48c-0.28,0.41-0.68,0.72-1.2,0.93l1.76,2.51
	H157.08z M157.05,56.08c0-0.49-0.16-0.86-0.48-1.12s-0.79-0.39-1.41-0.39h-1.66v3.04h1.66c0.62,0,1.09-0.13,1.41-0.39
	C156.89,56.95,157.05,56.57,157.05,56.08z M164.72,61.11c-0.78,0-1.48-0.17-2.1-0.5c-0.62-0.34-1.12-0.81-1.47-1.41
	c-0.36-0.6-0.53-1.28-0.53-2.02s0.18-1.41,0.53-2.01c0.36-0.6,0.85-1.07,1.47-1.41c0.62-0.34,1.33-0.51,2.1-0.51
	c0.78,0,1.48,0.17,2.1,0.51c0.62,0.33,1.12,0.8,1.47,1.4c0.36,0.6,0.53,1.27,0.53,2.02c0,0.75-0.18,1.42-0.53,2.02
	c-0.36,0.6-0.85,1.06-1.47,1.41C166.2,60.94,165.49,61.11,164.72,61.11z M164.72,59.87c0.51,0,0.97-0.11,1.37-0.34
	c0.41-0.23,0.73-0.55,0.96-0.96c0.23-0.41,0.35-0.88,0.35-1.38c0-0.51-0.12-0.97-0.35-1.37c-0.23-0.41-0.55-0.73-0.96-0.96
	c-0.41-0.23-0.86-0.35-1.37-0.35c-0.51,0-0.97,0.12-1.37,0.35c-0.41,0.23-0.73,0.54-0.96,0.96c-0.23,0.41-0.35,0.86-0.35,1.37
	c0,0.51,0.12,0.97,0.35,1.38c0.23,0.41,0.55,0.73,0.96,0.96C163.75,59.75,164.21,59.87,164.72,59.87z M174.95,61.11
	c-0.77,0-1.47-0.17-2.09-0.5c-0.62-0.34-1.1-0.81-1.46-1.41c-0.35-0.6-0.52-1.27-0.52-2.02c0-0.75,0.18-1.42,0.53-2.02
	c0.36-0.6,0.84-1.06,1.46-1.4c0.62-0.34,1.32-0.51,2.09-0.51c0.62,0,1.2,0.11,1.71,0.33c0.52,0.22,0.95,0.53,1.31,0.95l-0.92,0.86
	c-0.55-0.6-1.23-0.89-2.04-0.89c-0.52,0-0.99,0.12-1.41,0.35c-0.41,0.23-0.74,0.54-0.97,0.95c-0.23,0.41-0.35,0.87-0.35,1.38
	s0.12,0.98,0.35,1.38c0.23,0.41,0.56,0.73,0.97,0.96c0.41,0.23,0.88,0.34,1.41,0.34c0.81,0,1.49-0.3,2.04-0.9l0.92,0.87
	c-0.36,0.41-0.79,0.73-1.32,0.95C176.15,61,175.57,61.11,174.95,61.11z M186.15,59.81V61h-5.72v-7.63H186v1.19h-4.15v1.98h3.68v1.17
	h-3.68v2.1H186.15z M193.81,61l-1.56-2.23c-0.07,0.01-0.16,0.01-0.29,0.01h-1.72V61h-1.42v-7.63h3.14c0.66,0,1.24,0.11,1.72,0.33
	c0.49,0.22,0.87,0.53,1.13,0.94c0.26,0.41,0.39,0.89,0.39,1.45c0,0.57-0.14,1.07-0.43,1.48c-0.28,0.41-0.68,0.72-1.2,0.93l1.76,2.51
	H193.81z M193.78,56.08c0-0.49-0.16-0.86-0.48-1.12c-0.32-0.26-0.79-0.39-1.41-0.39h-1.66v3.04h1.66c0.62,0,1.09-0.13,1.41-0.39
	C193.62,56.95,193.78,56.57,193.78,56.08z M201.07,58.31V61h-1.42v-2.67l-3-4.96h1.51l2.24,3.72l2.26-3.72h1.4L201.07,58.31z"/>
<path class="st0" d="M117.63,7.15c0.89,0,1.61,0.3,2.16,0.89s0.83,1.33,0.83,2.22v32.36c0,0.96-0.33,1.78-1,2.44
	C119,45.69,118.21,46,117.25,46c-0.48,0-0.98-0.07-1.5-0.22c-0.48-0.19-0.85-0.43-1.11-0.72L92.82,17.36l1.44-0.89v26.42
	c0,0.89-0.3,1.63-0.89,2.22C92.82,45.7,92.08,46,91.16,46c-0.89,0-1.61-0.3-2.16-0.89s-0.83-1.33-0.83-2.22V10.54
	c0-0.96,0.31-1.76,0.94-2.39c0.67-0.67,1.48-1,2.44-1c0.52,0,1.05,0.11,1.61,0.33c0.56,0.19,0.96,0.48,1.22,0.89l21.15,26.97
	l-0.94,0.67V10.26c0-0.89,0.28-1.63,0.83-2.22S116.71,7.15,117.63,7.15z M142.38,46.55c-3.14,0-5.88-0.65-8.21-1.94
	c-2.29-1.33-4.07-3.13-5.33-5.38c-1.22-2.26-1.83-4.81-1.83-7.66c0-3.33,0.67-6.16,2-8.49c1.37-2.37,3.15-4.18,5.33-5.44
	s4.49-1.89,6.94-1.89c1.89,0,3.66,0.39,5.33,1.17c1.7,0.78,3.2,1.85,4.5,3.22c1.29,1.33,2.31,2.89,3.05,4.66
	c0.78,1.78,1.17,3.66,1.17,5.66c-0.04,0.89-0.39,1.61-1.06,2.16s-1.44,0.83-2.33,0.83h-21.2l-1.66-5.55h20.37l-1.22,1.11v-1.5
	c-0.07-1.07-0.46-2.03-1.17-2.89c-0.67-0.85-1.52-1.52-2.55-2c-1-0.52-2.07-0.78-3.22-0.78c-1.11,0-2.15,0.15-3.11,0.44
	c-0.96,0.3-1.79,0.8-2.5,1.5c-0.7,0.7-1.26,1.65-1.66,2.83c-0.41,1.18-0.61,2.68-0.61,4.5c0,2,0.41,3.7,1.22,5.11
	c0.85,1.37,1.92,2.42,3.22,3.16c1.33,0.7,2.74,1.05,4.22,1.05c1.37,0,2.46-0.11,3.27-0.33c0.81-0.22,1.46-0.48,1.94-0.78
	c0.52-0.33,0.98-0.61,1.39-0.83c0.67-0.33,1.29-0.5,1.89-0.5c0.81,0,1.48,0.28,2,0.83c0.56,0.56,0.83,1.2,0.83,1.94
	c0,1-0.52,1.91-1.55,2.72c-0.96,0.81-2.31,1.54-4.05,2.16C146.03,46.26,144.23,46.55,142.38,46.55z M159.39,41.39
	c-0.37-0.52-0.54-1.18-0.5-2c0.04-0.81,0.52-1.52,1.44-2.11c0.59-0.37,1.22-0.52,1.89-0.44c0.67,0.04,1.31,0.37,1.94,1
	c1.07,1.07,2.2,1.91,3.38,2.5c1.18,0.59,2.66,0.89,4.44,0.89c0.56-0.04,1.17-0.11,1.83-0.22c0.67-0.15,1.24-0.44,1.72-0.89
	c0.52-0.48,0.78-1.2,0.78-2.16c0-0.81-0.28-1.46-0.83-1.94c-0.55-0.48-1.29-0.89-2.22-1.22c-0.89-0.33-1.89-0.65-3-0.94
	c-1.15-0.33-2.33-0.7-3.55-1.11c-1.18-0.41-2.28-0.93-3.27-1.55c-1-0.67-1.81-1.54-2.44-2.61s-0.94-2.42-0.94-4.05
	c0-1.85,0.52-3.42,1.55-4.72c1.04-1.3,2.37-2.29,4-3c1.67-0.7,3.4-1.05,5.22-1.05c1.15,0,2.35,0.15,3.61,0.44
	c1.26,0.26,2.46,0.7,3.61,1.33c1.15,0.59,2.11,1.39,2.89,2.39c0.41,0.55,0.65,1.22,0.72,2c0.07,0.78-0.28,1.48-1.05,2.11
	c-0.55,0.44-1.2,0.65-1.94,0.61c-0.74-0.07-1.35-0.33-1.83-0.78c-0.63-0.81-1.48-1.46-2.55-1.94c-1.04-0.48-2.24-0.72-3.61-0.72
	c-0.55,0-1.16,0.07-1.83,0.22c-0.63,0.11-1.18,0.39-1.67,0.83c-0.48,0.41-0.72,1.07-0.72,2c0,0.85,0.28,1.54,0.83,2.05
	c0.55,0.48,1.29,0.89,2.22,1.22c0.96,0.3,1.98,0.59,3.05,0.89c1.11,0.3,2.24,0.65,3.39,1.05c1.15,0.41,2.2,0.94,3.16,1.61
	c0.96,0.67,1.74,1.54,2.33,2.61c0.59,1.04,0.89,2.37,0.89,4c0,1.89-0.55,3.5-1.66,4.83c-1.11,1.33-2.5,2.35-4.16,3.05
	c-1.66,0.67-3.37,1-5.11,1c-2.18,0-4.37-0.37-6.55-1.11C162.65,44.67,160.83,43.32,159.39,41.39z M188.2,16.86h13.15
	c0.89,0,1.63,0.3,2.22,0.89c0.59,0.59,0.89,1.33,0.89,2.22c0,0.85-0.3,1.57-0.89,2.16c-0.59,0.56-1.33,0.83-2.22,0.83H188.2
	c-0.89,0-1.63-0.3-2.22-0.89c-0.59-0.59-0.89-1.33-0.89-2.22c0-0.85,0.3-1.55,0.89-2.11C186.57,17.16,187.31,16.86,188.2,16.86z
	 M194.13,9.92c0.96,0,1.74,0.33,2.33,1c0.63,0.63,0.94,1.42,0.94,2.39v24.7c0,0.52,0.09,0.94,0.28,1.28
	c0.22,0.33,0.5,0.57,0.83,0.72c0.37,0.15,0.76,0.22,1.16,0.22c0.44,0,0.85-0.07,1.22-0.22c0.37-0.19,0.8-0.28,1.28-0.28
	c0.52,0,0.98,0.24,1.39,0.72c0.44,0.48,0.67,1.15,0.67,2c0,1.04-0.57,1.89-1.72,2.55c-1.11,0.67-2.31,1-3.61,1
	c-0.78,0-1.65-0.06-2.61-0.17c-0.93-0.15-1.81-0.46-2.66-0.94c-0.81-0.52-1.5-1.29-2.05-2.33c-0.56-1.04-0.83-2.46-0.83-4.27V13.31
	c0-0.96,0.31-1.76,0.94-2.39C192.36,10.26,193.17,9.92,194.13,9.92z"/>
<g>
	<g>
		<g id="_x3C_鏡像重複_x3E__00000100355185819020034830000016535250795495062414_">
			<g>
				<g>
					<defs>
						<rect id="SVGID_1_" x="5.78" y="4.29" width="34.44" height="56.04"/>
					</defs>
					<clipPath id="SVGID_00000125570851406378492480000003261013303986476183_">
						<use xlink:href="#SVGID_1_"  style="overflow:visible;"/>
					</clipPath>
					<path style="clip-path:url(#SVGID_00000125570851406378492480000003261013303986476183_);fill:#8FC31F;" d="M14.88,15.33
						c0-9.27,4.51-8.22,4.51-1.31c0,4.53,2.2,6.92,5.1,8.09c3.08,1.25,7.85-0.13,9.9-2.87c1.03-1.36,1.47-2.87,1.47-5.1
						c0-2.23-0.59-4.05-2.6-5.87c-2.64-2.36-0.95-6.58,3.19-1.82c1.61,1.82,2.31,2.87,3.04,4.69c0.81,2.02,0.88,3.53,0.59,5.48
						c-0.33,2.23-0.88,3.79-2.2,5.35c-1.87,2.23-3.04,2.87-5.68,5.99c-1.47,1.74-3.19,4.69-4.22,9.53
						c-0.66,3.07-0.29,8.61-1.03,11.88c-0.73,3.25-1.61,5.22-3.04,7.71c-1.36,2.31-4.4,6.99-3.34-2.36
						c0.59-5.22,0.88-7.71,0.44-12.14c-0.48-4.69-2.09-7.04-6.71-6.53c-3.48,0.38-2.31,6.76-3.19,10.83
						c-1.76,7.84-4.14,3.38-4.51,2.1C5.85,46.53,5.52,42.86,6,39.99c1.47-8.61,3.19-8.14,8.58-9.66c4.66-1.31,5.61-3.2,2.6-7.3
						C15.02,20.04,14.88,15.33,14.88,15.33z"/>
				</g>
				<g>
					<defs>
						<rect id="SVGID_00000091001352574521101730000006163974198123637405_" x="5.78" y="4.29" width="34.44" height="56.04"/>
					</defs>
					<clipPath id="SVGID_00000103236053401600900140000011621663672097196184_">
						<use xlink:href="#SVGID_00000091001352574521101730000006163974198123637405_"  style="overflow:visible;"/>
					</clipPath>
					
						<ellipse style="clip-path:url(#SVGID_00000103236053401600900140000011621663672097196184_);fill:#8FC31F;" cx="27.68" cy="15.13" rx="5.21" ry="4.69"/>
				</g>
			</g>
		</g>
		<g id="_x3C_鏡像重複_x3E__00000058561067332168640330000006394044724294711719_">
			<g>
				<g>
					<defs>
						<rect id="SVGID_00000058546853254330585450000004748985210402623164_" x="40.48" y="4.29" width="34.44" height="56.04"/>
					</defs>
					<clipPath id="SVGID_00000021817196938168715630000006482395916938788267_">
						<use xlink:href="#SVGID_00000058546853254330585450000004748985210402623164_"  style="overflow:visible;"/>
					</clipPath>
					<path style="clip-path:url(#SVGID_00000021817196938168715630000006482395916938788267_);fill:#8FC31F;" d="M65.78,15.33
						c0-9.27-4.51-8.22-4.51-1.31c0,4.53-2.2,6.92-5.1,8.09c-3.08,1.25-7.85-0.13-9.9-2.87c-1.03-1.36-1.47-2.87-1.47-5.1
						c0-2.23,0.59-4.05,2.6-5.87c2.64-2.36,0.95-6.58-3.19-1.82c-1.61,1.82-2.31,2.87-3.04,4.69c-0.81,2.02-0.88,3.53-0.59,5.48
						c0.33,2.23,0.88,3.79,2.2,5.35c1.87,2.23,3.04,2.87,5.68,5.99c1.47,1.74,3.19,4.69,4.22,9.53c0.66,3.07,0.29,8.61,1.03,11.88
						c0.73,3.25,1.61,5.22,3.04,7.71c1.36,2.31,4.4,6.99,3.34-2.36c-0.59-5.22-0.88-7.71-0.44-12.14c0.48-4.69,2.09-7.04,6.71-6.53
						c3.48,0.38,2.31,6.76,3.19,10.83c1.76,7.84,4.14,3.38,4.51,2.1c0.73-2.48,1.06-6.15,0.59-9.02c-1.47-8.61-3.19-8.14-8.58-9.66
						c-4.66-1.31-5.61-3.2-2.6-7.3C65.63,20.04,65.78,15.33,65.78,15.33z"/>
				</g>
				<g>
					<defs>
						<rect id="SVGID_00000155852729874093016240000002764246526011507623_" x="40.48" y="4.29" width="34.44" height="56.04"/>
					</defs>
					<clipPath id="SVGID_00000096747238500824388390000016341896324240948647_">
						<use xlink:href="#SVGID_00000155852729874093016240000002764246526011507623_"  style="overflow:visible;"/>
					</clipPath>
					
						<ellipse style="clip-path:url(#SVGID_00000096747238500824388390000016341896324240948647_);fill:#8FC31F;" cx="53.02" cy="15.13" rx="5.21" ry="4.69"/>
				</g>
			</g>
		</g>
	</g>
	<path class="st5" d="M-6.21,24.68"/>
	<path class="st6" d="M16.6,29.7c0,0,0.88-0.28,1.54-1.1c0,0,5.02,2.77,8.14,4.12c5.9,2.54,10.56,3.46,14.19,3.38
		c6.01-0.13,10.38-2.02,14.16-3.56c2.9-1.18,5.94-2.87,7.92-4c0,0,0.07,0.28,1.72,1.2c0,0-5.35,2.74-9.43,4.51
		c-3.3,1.43-8.33,3.51-14.19,3.51c-5.13,0-10.6-1.08-15.07-3.15C23.05,33.46,16.6,29.7,16.6,29.7z"/>
</g>
</svg>
